<svg width="46" height="59" viewBox="0 0 46 59" fill="none" xmlns="http://www.w3.org/2000/svg">
<path d="M23 0C16.9012 0.00387735 11.0533 2.42833 6.74083 6.74083C2.42833 11.0533 0.00387735 16.9012 0 23V52.2727C0 53.9364 0.660875 55.5319 1.83724 56.7082C3.0136 57.8846 4.6091 58.5455 6.27273 58.5455C7.93636 58.5455 9.53185 57.8846 10.7082 56.7082C11.8846 55.5319 12.5455 53.9364 12.5455 52.2727V43.9091C12.5455 43.3545 12.7657 42.8227 13.1579 42.4306C13.55 42.0385 14.0818 41.8182 14.6364 41.8182C15.1909 41.8182 15.7227 42.0385 16.1149 42.4306C16.507 42.8227 16.7273 43.3545 16.7273 43.9091V52.2727C16.7273 53.9364 17.3881 55.5319 18.5645 56.7082C19.7409 57.8846 21.3364 58.5455 23 58.5455C24.6636 58.5455 26.2591 57.8846 27.4355 56.7082C28.6119 55.5319 29.2727 53.9364 29.2727 52.2727V43.9091C29.2727 43.3545 29.493 42.8227 29.8851 42.4306C30.2773 42.0385 30.8091 41.8182 31.3636 41.8182C31.9182 41.8182 32.45 42.0385 32.8421 42.4306C33.2343 42.8227 33.4545 43.3545 33.4545 43.9091V52.2727C33.4545 53.9364 34.1154 55.5319 35.2918 56.7082C36.4682 57.8846 38.0636 58.5455 39.7273 58.5455C41.3909 58.5455 42.9864 57.8846 44.1628 56.7082C45.3391 55.5319 46 53.9364 46 52.2727V23C45.9928 16.9022 43.5673 11.0563 39.2555 6.74449C34.9437 2.43271 29.0978 0.00719371 23 0ZM31.3636 23C30.5365 23 29.728 22.7547 29.0403 22.2952C28.3526 21.8357 27.8167 21.1826 27.5001 20.4185C27.1836 19.6544 27.1008 18.8135 27.2622 18.0024C27.4235 17.1912 27.8218 16.446 28.4066 15.8612C28.9915 15.2764 29.7366 14.8781 30.5478 14.7167C31.359 14.5554 32.1998 14.6382 32.9639 14.9547C33.7281 15.2712 34.3812 15.8072 34.8407 16.4949C35.3002 17.1826 35.5455 17.9911 35.5455 18.8182C35.5455 19.9273 35.1049 20.9909 34.3206 21.7752C33.5364 22.5594 32.4727 23 31.3636 23ZM14.6364 23C13.8093 23 13.0008 22.7547 12.3131 22.2952C11.6254 21.8357 11.0894 21.1826 10.7729 20.4185C10.4564 19.6544 10.3735 18.8135 10.5349 18.0024C10.6963 17.1912 11.0945 16.446 11.6794 15.8612C12.2642 15.2764 13.0093 14.8781 13.8205 14.7167C14.6317 14.5554 15.4725 14.6382 16.2367 14.9547C17.0008 15.2712 17.6539 15.8072 18.1134 16.4949C18.5729 17.1826 18.8182 17.9911 18.8182 18.8182C18.8182 19.9273 18.3776 20.9909 17.5934 21.7752C16.8091 22.5594 15.7455 23 14.6364 23Z" fill="#A7A7A7"/>
</svg>
