<svg width="22" height="20" viewBox="0 0 22 20" fill="#1C1C1E" xmlns="http://www.w3.org/2000/svg">
<path d="M0.491211 6.96875C0.491211 11.4761 4.35938 15.8921 10.3027 19.7188C10.5103 19.8516 10.8008 19.9844 11 19.9844C11.2075 19.9844 11.498 19.8516 11.7056 19.7188C17.6406 15.8921 21.5088 11.4761 21.5088 6.96875C21.5088 3.2666 18.9604 0.626953 15.5488 0.626953C13.5981 0.626953 11.938 1.60645 11 3.10889C10.0703 1.61475 8.41016 0.626953 6.45117 0.626953C3.03955 0.626953 0.491211 3.2666 0.491211 6.96875ZM1.96045 6.96875C1.96045 4.06348 3.86133 2.09619 6.43457 2.09619C8.43506 2.09619 9.63867 3.34131 10.3608 4.51172C10.6099 4.89355 10.7759 5.00977 11 5.00977C11.2324 5.00977 11.3735 4.88525 11.6475 4.51172C12.4028 3.35791 13.5732 2.09619 15.5654 2.09619C18.1387 2.09619 20.0396 4.06348 20.0396 6.96875C20.0396 10.978 15.8394 15.2446 11.1992 18.3325C11.1079 18.3906 11.0415 18.4404 11 18.4404C10.9585 18.4404 10.8921 18.3906 10.8008 18.3325C6.16064 15.2446 1.96045 10.978 1.96045 6.96875Z" fill="currentColor"/>
</svg>
