<svg width="26" height="24" viewBox="0 0 26 24" fill="#757575" xmlns="http://www.w3.org/2000/svg">
<path d="M0.490723 11.2847C0.490723 11.6582 0.78125 12.0151 1.2793 12.0151C1.52832 12.0151 1.73584 11.874 1.91846 11.7163L3.4624 10.4214V20.9302C3.4624 22.3745 4.29248 23.188 5.75342 23.188H20.2051C21.666 23.188 22.4961 22.3745 22.4961 20.9302V10.3799L24.0898 11.7163C24.2808 11.874 24.48 12.0151 24.7373 12.0151C25.1689 12.0151 25.5093 11.7412 25.5093 11.3096C25.5093 11.0356 25.418 10.853 25.2188 10.6787L22.4961 8.3877V3.93848C22.4961 3.52344 22.2222 3.25781 21.8071 3.25781H20.7529C20.3379 3.25781 20.0557 3.52344 20.0557 3.93848V6.3374L14.2202 1.43164C13.4731 0.79248 12.5684 0.79248 11.813 1.43164L0.789551 10.6787C0.582031 10.853 0.490723 11.0688 0.490723 11.2847ZM16.0464 14.3809C16.0464 13.916 15.7476 13.6172 15.2827 13.6172H10.7173C10.2524 13.6172 9.94531 13.916 9.94531 14.3809V21.7188H6.06055C5.31348 21.7188 4.93164 21.3286 4.93164 20.5732V9.19287L12.6099 2.75146C12.8589 2.52734 13.1494 2.51904 13.4233 2.75146L21.0269 9.14307V20.5732C21.0269 21.3286 20.645 21.7188 19.8896 21.7188H16.0464V14.3809Z" fill="currentColor"/>
</svg>
