<svg width="20" height="21" viewBox="0 0 20 21" fill="none" xmlns="http://www.w3.org/2000/svg">
<path d="M10.0083 10.1729C12.5234 10.1729 14.5488 7.94824 14.5488 5.20068C14.5488 2.51123 12.5234 0.369629 10.0083 0.369629C7.50146 0.369629 5.45117 2.54443 5.45947 5.22559C5.46777 7.95654 7.49316 10.1729 10.0083 10.1729ZM10.0083 8.78662C8.32324 8.78662 6.92871 7.22607 6.92871 5.22559C6.92041 3.2749 8.31494 1.75586 10.0083 1.75586C11.7017 1.75586 13.0796 3.2583 13.0796 5.20068C13.0796 7.20947 11.6934 8.78662 10.0083 8.78662ZM3.15186 20.0176H16.8398C18.4917 20.0176 19.272 19.5112 19.272 18.3906C19.272 15.6016 15.7441 11.584 9.9917 11.584C4.24756 11.584 0.719727 15.6016 0.719727 18.3906C0.719727 19.5112 1.5 20.0176 3.15186 20.0176ZM2.74512 18.6313C2.33838 18.6313 2.18896 18.5317 2.18896 18.2329C2.18896 16.2988 5.00293 12.9702 9.9917 12.9702C14.9888 12.9702 17.8027 16.2988 17.8027 18.2329C17.8027 18.5317 17.6533 18.6313 17.2466 18.6313H2.74512Z" fill="#757575"/>
</svg>
