<svg width="22" height="22" viewBox="0 0 22 22" fill="none" xmlns="http://www.w3.org/2000/svg">
<path d="M0.624023 8.93994C0.624023 13.5635 4.39258 17.332 9.02441 17.332C10.8921 17.332 12.6104 16.7178 14.0049 15.6802L19.4751 21.1587C19.6826 21.3745 19.9731 21.4824 20.272 21.4824C20.9277 21.4824 21.3677 20.9844 21.3677 20.3618C21.3677 20.0547 21.2598 19.7891 21.0605 19.5815L15.6152 14.1113C16.7441 12.6919 17.4248 10.8906 17.4248 8.93994C17.4248 4.30811 13.6562 0.539551 9.02441 0.539551C4.39258 0.539551 0.624023 4.30811 0.624023 8.93994ZM2.17627 8.93994C2.17627 5.16309 5.24756 2.0918 9.02441 2.0918C12.8013 2.0918 15.8643 5.16309 15.8643 8.93994C15.8643 12.7085 12.8013 15.7798 9.02441 15.7798C5.24756 15.7798 2.17627 12.7085 2.17627 8.93994Z" fill="#757575"/>
</svg>
